# xmcd
#
# Track frame offsets: 
#        150
#        12270
#        24510
#        33926
#        46803
#        55069
#        59380
#        65205
#        72047
#        75509
#        91744
#        102502
#        113171
#        123526
#        133020
#
# Disc length: 1870 seconds
#
# Revision: 0
# Processed by: cddbd v1.5.1PL2 Copyright (c) Steve Scherf et al.
# Submitted via: ExactAudioCopy v0.95b4
#
DISCID=c4074c0f
DTITLE=The Rat Pack - Platinum Classic Collection
DYEAR=2004
DGENRE=Swing
TTITLE0=You're Nobody 'Til Somebody Loves You
TTITLE1=I Left My heart In San Francisco
TTITLE2=When Your Lover Has Gone
TTITLE3=What Kind Of Fool Am I?
TTITLE4=The Lady Is A Tramp
TTITLE5=Where Or When
TTITLE6=This Can't Be Love
TTITLE7=Hey There
TTITLE8=Pennies From Heaven
TTITLE9=Out Of This World
TTITLE10=Night And Day
TTITLE11=Medly: Volare~on An Evening In Roma
TTITLE12=Me And My Shadow
TTITLE13=Chicago (That Toddlin' Town)
TTITLE14=The Birth Of The Blues
EXTD=
EXTT0=
EXTT1=
EXTT2=
EXTT3=
EXTT4=
EXTT5=
EXTT6=
EXTT7=
EXTT8=
EXTT9=
EXTT10=
EXTT11=
EXTT12=
EXTT13=
EXTT14=
PLAYORDER=
